<?xml version="1.0" encoding="UTF-8" standalone="no"?>
<!-- Created with Inkscape (http://www.inkscape.org/) -->
<svg xmlns:dc="http://purl.org/dc/elements/1.1/" xmlns:cc="http://creativecommons.org/ns#" xmlns:rdf="http://www.w3.org/1999/02/22-rdf-syntax-ns#" xmlns:svg="http://www.w3.org/2000/svg" xmlns="http://www.w3.org/2000/svg" xmlns:sodipodi="http://sodipodi.sourceforge.net/DTD/sodipodi-0.dtd" xmlns:inkscape="http://www.inkscape.org/namespaces/inkscape" id="svg2" sodipodi:docname="bitcoin-chain.svg" viewBox="0 0 1509.5787 735.71876" version="1.1" inkscape:version="0.48.4 r9939">
  <defs id="defs26"/>
  <title id="title3900">API Icon</title>
  <sodipodi:namedview id="base" bordercolor="#666666" inkscape:pageshadow="2" inkscape:window-y="-8" fit-margin-left="0" pagecolor="#ffffff" fit-margin-top="0" inkscape:window-maximized="1" inkscape:zoom="1.0821542" inkscape:window-x="-8" inkscape:window-height="1028" showgrid="false" borderopacity="1.0" inkscape:current-layer="g3906" inkscape:cx="802.39733" inkscape:cy="357.3248" fit-margin-right="0" fit-margin-bottom="0" inkscape:window-width="1920" inkscape:pageopacity="0.0" inkscape:document-units="px" showguides="true" inkscape:guide-bbox="true"/>
  <g id="layer1" inkscape:label="Layer 1" inkscape:groupmode="layer" transform="translate(192.56591,189.00526)">
    <g id="g3876" style="fill:#7f00ff">
      <g id="g3906" style="fill:#000000" transform="matrix(5.3492,0,0,5.3492,-1332,-1858)">
        <g style="font-size:1041.66662598px;font-style:normal;font-variant:normal;font-weight:normal;font-stretch:normal;line-height:125%;letter-spacing:0px;word-spacing:0px;fill:#cccccc;fill-opacity:1;stroke:none;font-family:FreeSerif;-inkscape-font-specification:FreeSerif" id="text3024" transform="matrix(0.0356362,-0.0221283,5.9466456e-4,0.02834694,400.01766,381.5121)"/>
        <g style="font-size:1041.66662598px;font-style:normal;font-variant:normal;font-weight:normal;font-stretch:normal;line-height:125%;letter-spacing:0px;word-spacing:0px;fill:#ffffff;fill-opacity:1;stroke:none;font-family:FreeSerif;-inkscape-font-specification:FreeSerif" id="text3024-4" transform="matrix(0.0356362,0.02176749,5.9466464e-4,0.02907943,323.1945,366.95297)"/>
        <path style="font-size:1121.49536133px;font-style:normal;font-variant:normal;font-weight:normal;font-stretch:normal;line-height:125%;letter-spacing:0px;word-spacing:0px;fill:#000000;fill-opacity:1;stroke:none;font-family:FreeSerif;-inkscape-font-specification:FreeSerif" d="M 219.59375,9.3125 176.78125,94.59375 90.5625,51.3125 84.375,63.71875 c 53.10584,30.734683 57.29904,41.80677 33.09375,90.03125 L -27.75,443.09375 c -24.20529,48.22448 -36.929078,52.44409 -92,27.25 l -6.21875,12.375 L -39.75,526 -85.375,616.9375 -42.59375,638.40625 3.0625,547.5 l 37.96875,19.03125 -45.65625,90.9375 42.8125,21.46875 45.625,-90.90625 7.875,3.9375 c 126.42636,63.45708 193.04267,8.79609 216.59375,-38.125 42.52282,-84.7187 -33.67244,-145.83675 -56.46875,-165.4375 25.75276,5.58328 98.72743,25.91216 136.34375,-49.03125 33.54906,-66.84018 3.64044,-128.55136 -88.21875,-181.9375 L 343.15625,71.34375 300.34375,49.875 257.5625,135.125 219.59375,116.09375 262.375,30.8125 219.59375,9.3125 z m -6.3125,136 c 2.66045,-0.17348 5.50774,0.56049 8.5625,2.09375 l 28.6875,14.375 c 74.94347,37.61632 98.95549,88.84403 69.84375,146.84375 -23.56587,46.9505 -67.09262,60.16765 -121.875,37.6875 l -17.21875,28.53125 C 233.60978,409.44793 265.69955,451.72728 233,516.875 194.40237,593.77349 127.25211,579.6537 56.21875,544 24.286327,527.97214 18.126596,517.51011 28.59375,496.65625 L 109.6875,335.0625 c 11.35624,5.70003 22.65347,11.4477 33.59375,17.34375 l 13.65625,-26.3125 -34.15625,-17.125 L 197.6875,159.75 c 4.72248,-9.40867 9.74077,-14.05585 15.59375,-14.4375 z" transform="matrix(0.18694385,0,0,0.18694385,236.55927,310.26737)" id="path3022" inkscape:connector-curvature="0"/>
        <g style="font-size:1041.66662598px;font-style:normal;font-variant:normal;font-weight:normal;font-stretch:normal;line-height:125%;letter-spacing:0px;word-spacing:0px;fill:#000000;fill-opacity:1;stroke:none;font-family:FreeSerif;-inkscape-font-specification:FreeSerif" id="text3024-0" transform="matrix(0.11695497,0.05870313,-0.05870313,0.11695497,255.44806,294.94636)"/>
        <path style="font-size:1121.49536133px;font-style:normal;font-variant:normal;font-weight:normal;font-stretch:normal;line-height:125%;letter-spacing:0px;word-spacing:0px;fill:#000000;fill-opacity:1;stroke:none;font-family:FreeSerif;-inkscape-font-specification:FreeSerif" d="m 556.59375,31.9375 0,94.125 -95.15625,0 0,13.65625 c 60.41659,3.59621 69.03125,11.52584 69.03125,64.75 l 0,258.375 73.375,-41.34375 0,-53.75 c 10.83384,0 21.63557,0.0673 32.28125,0.3125 l 10.53125,-29.09375 -42.8125,0 0,-164.71875 c 0,-15.10416 5.02381,-21.5625 15.8125,-21.5625 l 31.65625,0 c 82.71323,0 126.5625,34.51839 126.5625,98.53125 0,34.96865 -14.81608,60.43084 -42.34375,74.65625 L 755.75,393.59375 c 23.03375,15.51518 37.25,40.31406 37.25,79.875 0,84.87094 -65.44604,102.125 -143.84375,102.125 -35.24304,0 -45.3125,-6.4841 -45.3125,-29.5 l 0,-71.59375 -73.375,33.9375 0,15.375 c 0,53.22416 -9.33391,62.56099 -69.03125,64.71875 l 0,13.65625 95.15625,0 0,100.375 47.21875,0 0,-100.375 41.90625,0 0,100.375 47.25,0 0,-100.375 8.6875,0 c 139.53361,0 174.0625,-77.65184 174.0625,-129.4375 0,-93.50187 -94.23018,-113.65127 -123,-120.84375 25.1736,-6.47317 98.53125,-20.84927 98.53125,-103.5625 0,-73.76985 -53.67754,-114.95773 -158.28125,-121.375 l 0,-95.03125 -47.25,0 0,94.125 -41.90625,0 0,-94.125 -47.21875,0 z" transform="matrix(0.18694385,0,0,0.18694385,236.55927,310.26737)" id="path3022-4" inkscape:connector-curvature="0"/>
        <g style="font-size:1041.66662598px;font-style:normal;font-variant:normal;font-weight:normal;font-stretch:normal;line-height:125%;letter-spacing:0px;word-spacing:0px;fill:#000000;fill-opacity:1;stroke:none;font-family:FreeSerif;-inkscape-font-specification:FreeSerif" id="text3024-0-8" transform="matrix(0.12908028,0,0,0.12908028,313.52055,311.00422)"/>
        <path style="font-size:1121.49536133px;font-style:normal;font-variant:normal;font-weight:normal;font-stretch:normal;line-height:125%;letter-spacing:0px;word-spacing:0px;fill:#000000;fill-opacity:1;stroke:none;font-family:FreeSerif;-inkscape-font-specification:FreeSerif" d="M 1141.4062,40.5 1116.9375,134.40625 1022,109.6875 l -3.5312,13.625 c 59.3449,19.29162 65.8966,29.42771 52.0624,82.53125 l -8.5937,33 73.2187,18.875 16.4063,-62.9375 c 3.9259,-15.06993 10.6421,-20.24171 21.4063,-17.4375 l 31.5624,8.25 c 82.5258,21.49892 117.3259,67.35102 100.6876,131.21875 -14.582,55.97403 -60.8254,77.60433 -128.2813,60.03125 l -68.1875,-17.75 16.6562,-63.875 -76.0937,-7.9375 -61.78125,237.1875 c -13.8341,53.10354 -25.59583,59.98875 -85.71875,46.625 l -3.5625,13.625 94.9375,24.75 -26.0625,100.125 47.125,12.28125 26.0625,-100.125 41.8125,10.875 -26.0938,100.125 47.125,12.28125 26.0938,-100.125 8.6875,2.25 c 139.2174,36.26774 193.8523,-32.23795 207.3125,-83.90625 24.3032,-93.28999 -64.4774,-137.87722 -91.3125,-152.53125 26.7991,0.0845 103.7198,4.7758 125.2187,-77.75 19.1744,-73.60269 -23.6763,-128.62727 -126.375,-162.21875 l 24.6876,-94.8125 -47.125,-12.25 -24.4688,93.90625 -41.8125,-10.90625 24.4687,-93.90625 L 1141.4062,40.5 z m -40.125,347.3125 c 95.4429,24.86399 187.6096,53.4725 161.25,154.65625 -22.0597,84.67864 -91.8423,84.87724 -170.0624,64.5 -35.1632,-9.1604 -43.5136,-18.22381 -37.5313,-41.1875 l 46.3437,-177.96875 z" transform="matrix(0.18694385,0,0,0.18694385,236.55927,310.26737)" id="path3022-4-2" inkscape:connector-curvature="0"/>
        <g style="font-size:1041.66662598px;font-style:normal;font-variant:normal;font-weight:normal;font-stretch:normal;line-height:125%;letter-spacing:0px;word-spacing:0px;fill:#000000;fill-opacity:1;stroke:none;font-family:FreeSerif;-inkscape-font-specification:FreeSerif" id="text3024-0-8-4" transform="matrix(0.12878777,0.03355073,-0.03355073,0.12878777,424.27329,305.57409)"/>
        <path style="font-size:medium;font-style:normal;font-variant:normal;font-weight:normal;font-stretch:normal;text-indent:0;text-align:start;text-decoration:none;line-height:normal;letter-spacing:normal;word-spacing:normal;text-transform:none;direction:ltr;block-progression:tb;writing-mode:lr-tb;text-anchor:start;baseline-shift:baseline;color:#000000;fill:#000000;fill-opacity:1;stroke:none;stroke-width:41.0999794;marker:none;visibility:visible;display:inline;overflow:visible;enable-background:accumulate;font-family:Sans;-inkscape-font-specification:Sans" d="m 397.375,232 7.0625,32.25 119.21875,0 0,-32.25 -126.28125,0 z m 211.125,0 0.53125,32.8125 c 44.84525,5.13697 63.31774,44.49608 41.625,93.125 l -10.5,23.53125 c -23.27886,52.18449 -83.28426,93.6875 -135.46875,93.6875 l -181.53125,0 1.75,32.25 165.40625,0 c 69.48643,0 151.12799,-56.45102 182.125,-125.9375 L 682.90625,357.9375 C 713.90326,288.45102 682.64262,232 613.15625,232 L 608.5,232 z m -299.34375,1.53125 C 244.81595,243.04788 175.5543,295.18783 147.5625,357.9375 l -10.5,23.53125 c -30.99701,69.48648 0.26352,125.9375 69.75,125.9375 l 23.1875,0 8.1875,-32.25 -17,0 c -52.18449,0 -75.15386,-41.50301 -51.875,-93.6875 l 10.5,-23.53125 C 203.09136,305.75295 263.09676,264.25 315.28125,264.25 l 3.9375,0 -10.0625,-30.71875 z" transform="matrix(0.18694385,0,0,0.18694385,236.55927,310.26737)" id="rect3064" inkscape:connector-curvature="0"/>
        <path style="font-size:medium;font-style:normal;font-variant:normal;font-weight:normal;font-stretch:normal;text-indent:0;text-align:start;text-decoration:none;line-height:normal;letter-spacing:normal;word-spacing:normal;text-transform:none;direction:ltr;block-progression:tb;writing-mode:lr-tb;text-anchor:start;baseline-shift:baseline;color:#000000;fill:#000000;fill-opacity:1;stroke:none;stroke-width:41.0999794;marker:none;visibility:visible;display:inline;overflow:visible;enable-background:accumulate;font-family:Sans;-inkscape-font-specification:Sans" d="m 860.625,244.84375 -6.71875,32.25 220.74995,0 c 52.5224,0 113.3381,41.50295 137.3126,93.6875 l 1.125,2.4375 29.25,-6.78125 C 1209.0344,298.95755 1128.286,244.84375 1059.8125,244.84375 l -199.1875,0 z m -94.59375,0.3125 c -63.92091,4.39506 -91.01245,59.00526 -60.40625,125.625 l 10.8125,23.53125 c 13.96066,30.38779 37.6187,58.29185 65.6875,80.0625 l 1.84375,-32.09375 c -14.73603,-13.9873 -27.03958,-30.36929 -35.125,-47.96875 l -10.8125,-23.53125 C 718.3501,327.9417 730.15708,292.32744 764.0625,280.9375 l 1.96875,-35.78125 z m 464.21875,204.5 C 1223.9016,472.98466 1203.0954,488 1171.5,488 l -87.9375,0 -11.1875,32.25 113.9688,0 c 33.5474,0 58.1051,-13.00096 71.0624,-34.1875 L 1230.25,449.65625 z m -346.40625,38.3125 -8.15625,29.96875 c 8.54535,1.51489 17.02017,2.3125 25.3125,2.3125 l 80.03125,0 8.53125,-32.25 -103.375,0 c -0.77858,0 -1.5617,-0.01 -2.34375,-0.0312 z" transform="matrix(0.18694385,0,0,0.18694385,236.55927,310.26737)" id="rect3064-5" inkscape:connector-curvature="0"/>
      </g>
    </g>
  </g>
  <metadata id="metadata24">
    <rdf:RDF>
      <cc:Work>
        <dc:format>image/svg+xml</dc:format>
        <dc:type rdf:resource="http://purl.org/dc/dcmitype/StillImage"/>
        <cc:license rdf:resource="http://creativecommons.org/licenses/publicdomain/"/>
        <dc:publisher>
          <cc:Agent rdf:about="http://openclipart.org/">
            <dc:title>Openclipart</dc:title>
          </cc:Agent>
        </dc:publisher>
        <dc:title>API Icon</dc:title>
        <dc:date>2012-09-30T01:28:59</dc:date>
        <dc:description>block symbol</dc:description>
        <dc:source>https://openclipart.org/detail/172554/block-by-jongo_jingaro-172554</dc:source>
        <dc:creator>
          <cc:Agent>
            <dc:title>jongo_jingaro</dc:title>
          </cc:Agent>
        </dc:creator>
        <dc:subject>
          <rdf:Bag>
            <rdf:li>block</rdf:li>
            <rdf:li>symbol</rdf:li>
          </rdf:Bag>
        </dc:subject>
      </cc:Work>
      <cc:License rdf:about="http://creativecommons.org/licenses/publicdomain/">
        <cc:permits rdf:resource="http://creativecommons.org/ns#Reproduction"/>
        <cc:permits rdf:resource="http://creativecommons.org/ns#Distribution"/>
        <cc:permits rdf:resource="http://creativecommons.org/ns#DerivativeWorks"/>
      </cc:License>
    </rdf:RDF>
  </metadata>
</svg>
